<?xml version="1.0" encoding="UTF-8" standalone="no"?>
<!-- Created with Inkscape (http://www.inkscape.org/) -->

<svg
   version="1.1"
   id="svg2"
   width="920"
   height="210.66667"
   viewBox="0 0 920 210.66667"
   sodipodi:docname="heineken.eps"
   xmlns:inkscape="http://www.inkscape.org/namespaces/inkscape"
   xmlns:sodipodi="http://sodipodi.sourceforge.net/DTD/sodipodi-0.dtd"
   xmlns="http://www.w3.org/2000/svg"
   xmlns:svg="http://www.w3.org/2000/svg">
  <defs
     id="defs6" />
  <sodipodi:namedview
     id="namedview4"
     pagecolor="#ffffff"
     bordercolor="#000000"
     borderopacity="0.25"
     inkscape:showpageshadow="2"
     inkscape:pageopacity="0.0"
     inkscape:pagecheckerboard="0"
     inkscape:deskcolor="#d1d1d1" />
  <g
     id="g8"
     inkscape:groupmode="layer"
     inkscape:label="ink_ext_XXXXXX"
     transform="matrix(1.3333333,0,0,-1.3333333,0,210.66667)">
    <g
       id="g10"
       transform="scale(0.1)">
      <path
         d="M 2850.18,843.277 V 3.16406 H 3030.2 V 468.227 C 3067.53,440.875 3301.91,19.293 3345.25,3.16406 h 142.52 c 30.85,5.6211 45.51,31.04684 45,75.00784 V 868.238 h -187.52 c 0,-99.211 -9,-370.054 7.5,-452.519 -20.39,7.379 -13.38,-0.184 -44.67,52.851 l -123.63,191.41 c -116.78,184.825 -101.46,205.801 -311.77,205.801 -17.29,0 -22.5,-5.218 -22.5,-22.504"
         style="fill:#00541c;fill-opacity:1;fill-rule:evenodd;stroke:none"
         id="path12" />
      <path
         d="M 6184.39,5.62109 H 6363 L 6356.91,470.684 C 6399.93,441.879 6555.5,141.438 6679.46,5.62109 h 133.13 c 34.27,4.51561 46.73,20.07811 47.39,67.01171 1.41,100.9102 -16.02,688.9492 -1.47,723.2622 8.4,27.816 25.38,30.839 34.15,33.363 l 1.84,38.98 H 6679.46 V 418.176 c -20.7,15.168 -238.91,365.703 -244.28,370.816 -30.09,46.668 -71.97,75.664 -130.77,79.246 H 6184.39 V 5.62109"
         style="fill:#00541c;fill-opacity:1;fill-rule:evenodd;stroke:none"
         id="path14" />
      <path
         d="M 4522.91,843.277 V 48.168 c 0,-27.5703 28.3,-39.93753 66.97,-45.00394 h 173.06 V 363.215 c 31.25,-8.348 12.7,-3.961 47.97,-57.047 l 132,-205.551 c 49.8,-70.8475 79.63,-92.01544 139.12,-97.45294 h 163.79 c 13.26,0.08985 27.3,0.10547 42.2,0 -6.25,26.81644 -306.7,484.80894 -322.55,510.06994 11.4,7.633 64.55,68.817 75.01,82.512 25.12,32.891 53.45,52.188 79.35,85.672 16.69,21.586 22.37,25.109 38.42,44.09 l 107.26,140.273 c -253.59,0 -204.77,32.957 -399.76,-200.316 -25.24,-30.184 -71.23,-76.785 -102.81,-99.723 v 300.039 h -217.53 c -17.28,0 -22.5,-5.218 -22.5,-22.504"
         style="fill:#00541c;fill-opacity:1;fill-rule:evenodd;stroke:none"
         id="path16" />
      <path
         d="m 1605,78.1719 c -2.74,-55.1953 24.32,-73.28518 82.51,-75.00784 h 435.06 c 29.11,0.4336 46.26,18.46484 52.51,52.50394 v 105.016 h -285.04 c -25.77,-1.598 -41.84,7.269 -45,30.004 v 180.027 h 262.53 v 165.019 h -262.53 v 165.028 h 330.04 c 0,88.179 18.99,148.633 -45.01,165.019 H 1605 V 78.1719"
         style="fill:#00541c;fill-opacity:1;fill-rule:evenodd;stroke:none"
         id="path18" />
      <path
         d="m 2385.11,40.668 c 0,-24.25 27.23,-37.50394 52.51,-37.50394 h 180.02 V 865.781 H 2385.11 V 40.668"
         style="fill:#00541c;fill-opacity:1;fill-rule:evenodd;stroke:none"
         id="path20" />
      <path
         d="m 3765,78.1719 c -2.74,-55.1953 24.33,-73.28518 82.52,-75.00784 h 435.06 c 29.1,0.4336 46.25,18.46484 52.51,52.50394 v 105.016 h -285.05 c -25.77,-1.598 -41.84,7.269 -45,30.004 v 180.027 h 262.53 v 165.019 h -262.53 v 165.028 h 330.05 c 0,88.179 18.98,148.633 -45.01,165.019 H 3765 V 78.1719"
         style="fill:#00541c;fill-opacity:1;fill-rule:evenodd;stroke:none"
         id="path22" />
      <path
         d="m 5405,78.1719 c -2.74,-55.1953 24.33,-73.28518 82.52,-75.00784 h 435.05 c 29.11,0.4336 46.26,18.46484 52.52,52.50394 v 105.016 h -285.05 c -25.77,-1.598 -41.84,7.269 -45,30.004 v 180.027 h 262.53 v 165.019 h -262.53 v 165.028 h 330.05 c 0,88.179 18.98,148.633 -45.02,165.019 H 5405 V 78.1719"
         style="fill:#00541c;fill-opacity:1;fill-rule:evenodd;stroke:none"
         id="path24" />
      <path
         d="M 700.203,785.73 696.906,15.9727 h 234.5 V 388.578 l 203.364,0.395 -0.83,-373.0003 h 232.53 V 868.238 H 1133.94 V 560.699 c 1.2,-14.363 -6.18,-23.426 -22.51,-22.508 H 953.91 c -15.094,-0.336 -22.422,7.368 -22.504,22.508 V 868.238 H 661.371 c -3.613,-57.277 40.438,-32.093 38.832,-82.508"
         style="fill:#00541c;fill-opacity:1;fill-rule:evenodd;stroke:none"
         id="path26" />
      <path
         d="M 336.57,1025.55 501.359,902.832 436.652,678.672 C 372.602,633.25 307.293,587.773 244.844,542.324 c -23.985,-7.633 -23.781,12.387 -11.555,46.219 L 341.902,932.871 C 233.289,1013.76 124.676,1094.64 16.0625,1175.52 c -10.92187,9.1 -9.57422,22.82 20.7969,23.11 l 395.1676,-4.62 c 40.059,122.48 80.114,244.96 120.168,367.44 8.2,23.14 23.383,19.58 30.043,2.31 l 120.168,-374.37 h 405.754 c 11.39,0.11 13.76,-8.65 5.23,-15.31 L 915.016,1032.24 H 690.855 l -61.636,190.12 c -4.153,10.91 -11.16,10.68 -14.844,-0.28 l -64.488,-187.53 -211.344,-1.05 c -9.805,0.22 -9.582,-3.51 -1.973,-7.95"
         style="fill:#ed1c24;fill-opacity:1;fill-rule:evenodd;stroke:none"
         id="path28" />
    </g>
  </g>
</svg>
